<svg viewBox="0 0 24 24" xmlns="http://www.w3.org/2000/svg">
  <!-- Document with curly braces -->
  <path d="M14 2 L6 2 C5 2 4 3 4 4 L4 20 C4 21 5 22 6 22 L18 22 C19 22 20 21 20 20 L20 8 Z" 
        fill="none" 
        stroke="#000000" 
        stroke-width="2" 
        stroke-linejoin="round"/>
  
  <!-- Folded corner -->
  <path d="M14 2 L14 8 L20 8" 
        fill="none" 
        stroke="#000000" 
        stroke-width="2" 
        stroke-linejoin="round"/>
  
  <!-- Left curly brace -->
  <path d="M9 12 C9 12 8 12 8 13 L8 14 C8 15 7 15 7 15 C7 15 8 15 8 16 L8 17 C8 18 9 18 9 18" 
        fill="none" 
        stroke="#000000" 
        stroke-width="1.5" 
        stroke-linecap="round"/>
  
  <!-- Right curly brace -->
  <path d="M15 12 C15 12 16 12 16 13 L16 14 C16 15 17 15 17 15 C17 15 16 15 16 16 L16 17 C16 18 15 18 15 18" 
        fill="none" 
        stroke="#000000" 
        stroke-width="1.5" 
        stroke-linecap="round"/>
</svg>