<svg viewBox="0 0 24 24" xmlns="http://www.w3.org/2000/svg">
  <!-- Rounded message bubble -->
  <path d="M21 12 C21 16.4 16.9 20 12 20 C10.5 20 9 19.6 7.8 19 L3 20 L4.2 16 C3.4 14.5 3 13 3 12 C3 7.6 7.1 4 12 4 C16.9 4 21 7.6 21 12 Z" 
        fill="none" 
        stroke="#000000" 
        stroke-width="2" 
        stroke-linejoin="round"/>
  
  <!-- Question mark -->
  <path d="M9.5 9 C9.5 8 10.5 7 12 7 C13.5 7 14.5 8 14.5 9 C14.5 10 13.5 10.5 12.5 11.3 C12 11.7 12 12 12 12.5" 
        fill="none" 
        stroke="#000000" 
        stroke-width="2" 
        stroke-linecap="round"/>
  
  <!-- Dot -->
  <circle cx="12" cy="15" r="0.8" fill="#000000"/>
</svg>