<svg viewBox="0 0 24 24" xmlns="http://www.w3.org/2000/svg">
  <!-- Gear with proper teeth -->
  <path d="M10.5 2 L13.5 2 L14 4.5 L15.5 5 L18 3.5 L20 5.5 L18.5 8 L19 9.5 L21.5 10 L21.5 13 L19 13.5 L18.5 15 L20 17.5 L18 19.5 L15.5 18 L14 18.5 L13.5 21 L10.5 21 L10 18.5 L8.5 18 L6 19.5 L4 17.5 L5.5 15 L5 13.5 L2.5 13 L2.5 10 L5 9.5 L5.5 8 L4 5.5 L6 3.5 L8.5 5 L10 4.5 Z" 
        fill="none" 
        stroke="#000000" 
        stroke-width="2" 
        stroke-linejoin="round"/>
  
  <!-- Center circle -->
  <circle cx="12" cy="12" r="3" 
          fill="none" 
          stroke="#000000" 
          stroke-width="2"/>
</svg>