<svg xmlns="http://www.w3.org/2000/svg" style="display:none">

  <!-- ====================== -->
  <!-- File / Project Icons -->
  <!-- ====================== -->
  <symbol id="new-file" viewBox="0 0 24 24">
   <!-- Document -->
  <path d="M14 2 L6 2 C5 2 4 3 4 4 L4 20 C4 21 5 22 6 22 L18 22 C19 22 20 21 20 20 L20 8 Z" 
        fill="none" 
       
        stroke-width="2" 
        stroke-linejoin="round"/>
  
  <!-- Folded corner -->
  <path d="M14 2 L14 8 L20 8" 
        fill="none" 
        
        stroke-width="2" 
        stroke-linejoin="round"/>
  
  <!-- Plus sign -->
  <line x1="12" y1="11" x2="12" y2="17" 
        
        stroke-width="2" 
        stroke-linecap="round"/>
  <line x1="9" y1="14" x2="15" y2="14" 
        
        stroke-width="2" 
        stroke-linecap="round"/>
  </symbol>
  <symbol id="open" viewBox="0 0 24 24">
    <path d="M4 4h7l2 2h7a2 2 0 0 1 2 2v11a2 2 0 0 1-2 2H4a2 2 0 0 1-2-2V6a2 2 0 0 1 2-2z"/>
  </symbol>
  <symbol id="save" viewBox="0 0 24 24">
    <path d="M17 3H5a2 2 0 0 0-2 2v14l4-4h10a2 2 0 0 0 2-2V5a2 2 0 0 0-2-2z"/>
  </symbol>
  <symbol id="export" viewBox="0 0 24 24">
    <path d="M5 20h14v-2H5v2zm7-18l-7 7h4v6h6v-6h4l-7-7z"/>
  </symbol>
  <symbol id="import" viewBox="0 0 24 24">
    <path d="M19 20H5v-2h14v2zm-7-18l7 7h-4v6h-6v-6H5l7-7z"/>
  </symbol>

  <!-- ====================== -->
  <!-- Edit Icons -->
  <!-- ====================== -->
  <symbol id="delete" viewBox="0 0 24 24">
  <path d="M5 6 L5 20 C5 21.1 5.9 22 7 22 L17 22 C18.1 22 19 21.1 19 20 L19 6" 
        fill="none" 
        
        stroke-width="2" 
        stroke-linecap="round"/>
  
  <!-- Top lid -->
  <path d="M3 6 L21 6" 
        
        stroke-width="2" 
        stroke-linecap="round"/>
  
  <!-- Handle on top -->
  <path d="M8 6 L8 4 C8 2.9 8.9 2 10 2 L14 2 C15.1 2 16 2.9 16 4 L16 6" 
        fill="none" 
        
        stroke-width="2" 
        stroke-linecap="round"/>
  
  <!-- Vertical lines inside -->
  <line x1="10" y1="10" x2="10" y2="18"  stroke-width="2" stroke-linecap="round"/>
  <line x1="14" y1="10" x2="14" y2="18"  stroke-width="2" stroke-linecap="round"/>
</symbol>

  <symbol id="copy" viewBox="0 0 24 24">
     <!-- Back document -->
  <rect x="7" y="7" width="13" height="13" rx="2" 
        fill="none" 
       
        stroke-width="2"/>
  
  <!-- Front document -->
  <rect x="4" y="4" width="13" height="13" rx="2" 
        fill="white" 
        
        stroke-width="2"/>
  </symbol>
  <symbol id="paste" viewBox="0 0 24 24">
    <!-- Clipboard top -->
  <rect x="8" y="2" width="8" height="4" rx="1" 
        fill="none" 
       
        stroke-width="2"/>
  
  <!-- Clipboard body -->
  <rect x="5" y="4" width="14" height="18" rx="2" 
        fill="none" 
       
        stroke-width="2"/>
  
  <!-- Lines on clipboard -->
  <line x1="9" y1="10" x2="15" y2="10" 
       
        stroke-width="2" 
        stroke-linecap="round"/>
  <line x1="9" y1="14" x2="15" y2="14" 
       
        stroke-width="2" 
        stroke-linecap="round"/>
  <line x1="9" y1="18" x2="12" y2="18" 
       
        stroke-width="2" 
        stroke-linecap="round"/>
  </symbol>
  <symbol id="edit" viewBox="0 0 24 24">
    <path d="M3 17.25V21h3.75L17.81 9.94l-3.75-3.75L3 17.25zM20.71 7.04a1.003 1.003 0 0 0 0-1.42L18.37 3.29a1.003 1.003 0 0 0-1.42 0l-1.83 1.83 3.75 3.75 1.84-1.83z"/>
  </symbol>
  <symbol id="undo" viewBox="0 0 24 24">
    <!-- Arrow pointing left at top -->
  <path d="M7 7 L3 10 L7 13" 
        fill="none" 
        
        stroke-width="2" 
        stroke-linecap="round" 
        stroke-linejoin="round"/>
  
  <!-- Curved body -->
  <path d="M3 10 L12 10 C16 10 18 12 18 15 C18 18 16 20 12 20 L6 20" 
        fill="none" 
        
        stroke-width="2" 
        stroke-linecap="round" 
        stroke-linejoin="round"/>
  </symbol>
  
  <symbol id="redo" viewBox="0 0 24 24">
    <!-- Arrow pointing right at top -->
  <path d="M17 7 L21 10 L17 13" 
        fill="none" 
        
        stroke-width="2" 
        stroke-linecap="round" 
        stroke-linejoin="round"/>
  
  <!-- Curved body -->
  <path d="M21 10 L12 10 C8 10 6 12 6 15 C6 18 8 20 12 20 L18 20" 
        fill="none" 
       
        stroke-width="2" 
        stroke-linecap="round" 
        stroke-linejoin="round"/>
  </symbol>


   
   <symbol id="clear" viewBox="0 0 24 24">
    <path d="M3 6h18v2H3V6zm0 10h18v2H3v-2zm0-5h18v2H3v-2z"/>
  </symbol>

  <!-- ====================== -->
  <!-- View / Zoom / Pan -->
  <!-- ====================== -->
  <symbol id="zoom-in" viewBox="0 0 24 24">
   
  <!-- Magnifying glass circle -->
  <circle cx="10" cy="10" r="7" 
          fill="none" 
         
          stroke-width="2"/>
  
  <!-- Plus sign inside -->
  <line x1="10" y1="7" x2="10" y2="13" 
       
        stroke-width="2" 
        stroke-linecap="round"/>
  <line x1="7" y1="10" x2="13" y2="10" 
       
        stroke-width="2" 
        stroke-linecap="round"/>
  
  <!-- Handle -->
  <line x1="15" y1="15" x2="21" y2="21" 
       
        stroke-width="2" 
        stroke-linecap="round"/>
  </symbol>
  <symbol id="zoom-out" viewBox="0 0 24 24">
     <!-- Magnifying glass circle -->
  <circle cx="10" cy="10" r="7" 
          fill="none" 
         
          stroke-width="2"/>
  
  <!-- Minus sign inside -->
  <line x1="7" y1="10" x2="13" y2="10" 
       
        stroke-width="2" 
        stroke-linecap="round"/>
  
  <!-- Handle -->
  <line x1="15" y1="15" x2="21" y2="21" 
        
        stroke-width="2" 
        stroke-linecap="round"/>
      </symbol>
  <symbol id="fit-to-screen" viewBox="0 0 24 24">
    <path d="M4 4h6V2H2v8h2V4zm14 0v4h4V2h-8v2h4zM4 20v-4H2v8h8v-2H4zm16-4v4h-4v2h8v-8h-2z"/>
  </symbol>
  <symbol id="pan-tool" viewBox="0 0 24 24">
    <path d="M20.5 11a1.5 1.5 0 0 0-3 0V4a1.5 1.5 0 0 0-3 0v5h-1V2.5a1.5 1.5 0 0 0-3 0V9h-1V5.5a1.5 1.5 0 0 0-3 0V17l3 5h6l3-5v-6z"/>
  </symbol>

  <!-- ====================== -->
  <!-- Shapes / Diagram Icons -->
  <!-- ====================== -->
  <symbol id="rectangle" viewBox="0 0 24 24">
    <rect x="4" y="6" width="16" height="12" rx="2" ry="2"/>
  </symbol>
  <symbol id="circle" viewBox="0 0 24 24">
    <circle cx="12" cy="12" r="8"/>
  </symbol>
  <symbol id="diamond" viewBox="0 0 24 24">
    <path d="M12 2l10 10-10 10L2 12 12 2z"/>
  </symbol>
  <symbol id="triangle" viewBox="0 0 24 24">
    <path d="M12 4l8 16H4L12 4z"/>
  </symbol>
  <symbol id="arrow-right" viewBox="0 0 24 24">
    <path d="M10 17l5-5-5-5v10z"/>
  </symbol>
  <symbol id="arrow-left" viewBox="0 0 24 24">
    <path d="M14 7l-5 5 5 5V7z"/>
  </symbol>
  <symbol id="connector" viewBox="0 0 24 24">
    <path d="M19 13H5v-2h14v2z"/>
  </symbol>

  <!-- ====================== -->
  <!-- Alignment / Distribution -->
  <!-- ====================== -->
  <symbol id="align-left" viewBox="0 0 24 24">
    <path d="M3 3h2v18H3V3zm4 3h14v2H7V6zm0 4h10v2H7v-2zm0 4h14v2H7v-2zm0 4h10v2H7v-2z"/>
  </symbol>
  <symbol id="align-center" viewBox="0 0 24 24">
    <path d="M11 3h2v18h-2V3zM3 7h18v2H3V7zm4 4h10v2H7v-2zm-4 4h18v2H3v-2z"/>
  </symbol>
  <symbol id="align-right" viewBox="0 0 24 24">
    <path d="M21 3h-2v18h2V3zm-4 3H3v2h14V6zm0 4H7v2h10v-2zm0 4H3v2h14v-2zm0 4H7v2h10v-2z"/>
  </symbol>
  <symbol id="distribute-horizontal" viewBox="0 0 24 24">
    <path d="M3 3h2v18H3V3zm16 0h2v18h-2V3zM8 7h8v10H8V7z"/>
  </symbol>
  <symbol id="distribute-vertical" viewBox="0 0 24 24">
    <path d="M3 3h18v2H3V3zm0 16h18v2H3v-2zM7 8h10v8H7V8z"/>
  </symbol>

  <!-- ====================== -->
  <!-- Settings / Help -->
  <!-- ====================== -->
  <symbol id="settings" viewBox="0 0 24 24">
    <path d="M19.14 12.94a1.99 1.99 0 0 0 0-1.88l2.03-1.58-2-3.46-2.4.93a7.015 7.015 0 0 0-1.63-.95l-.36-2.54H8.22l-.36 2.54a6.937 6.937 0 0 0-1.63.95l-2.4-.93-2 3.46 2.03 1.58a2 2 0 0 0 0 1.88L1.83 14.5l2 3.46 2.4-.93c.49.38 1.04.69 1.63.95l.36 2.54h5.56l.36-2.54c.59-.26 1.14-.57 1.63-.95l2.4.93 2-3.46-2.03-1.58zM12 15.5a3.5 3.5 0 1 1 0-7.001A3.5 3.5 0 0 1 12 15.5z"/>
  </symbol>
  <symbol id="help" viewBox="0 0 24 24">
    <path d="M12 2C6.48 2 2 6.48 2 12s4.48 10 10 10 10-4.48 10-10S17.52 2 12 2zm.01 17H12a1 1 0 0 1-1-1v-.01a1 1 0 0 1 2 0V18a1 1 0 0 1-1 1zm1.07-7.75c-.9.92-1.07 1.17-1.07 2.25h-2v-.5c0-1.1.42-2.1 1.07-2.75.68-.68 1.43-1.15 1.43-2.25 0-.83-.67-1.5-1.5-1.5S9.5 6.67 9.5 7.5h-2C7.5 5.57 9.07 4 11 4s3.5 1.57 3.5 3.5c0 1.4-.9 2.19-1.42 2.75z"/>
  </symbol>

</svg>
